<svg width="118" height="40" viewBox="0 0 118 40" fill="none" xmlns="http://www.w3.org/2000/svg">
<g clip-path="url(#clip0_1202_762)">
<path d="M108.798 -0.363182H9.20841C8.8454 -0.363182 8.48674 -0.363182 8.12461 -0.361196C7.82159 -0.359209 7.52094 -0.353449 7.21495 -0.348582C6.55021 -0.340738 5.88704 -0.28207 5.23119 -0.17309C4.57625 -0.0617373 3.94183 0.148201 3.34939 0.449624C2.75769 0.75361 2.21704 1.1486 1.74706 1.62027C1.2746 2.09057 0.880765 2.63418 0.580697 3.23019C0.279794 3.82507 0.0711521 4.46254 -0.0380224 5.12058C-0.148243 5.77776 -0.207553 6.44252 -0.215422 7.10889C-0.224628 7.4134 -0.225618 7.71889 -0.230469 8.0235V30.9797C-0.225618 31.2881 -0.224628 31.5868 -0.215422 31.8954C-0.207546 32.5617 -0.148235 33.2264 -0.0380224 33.8835C0.0708589 34.5419 0.279513 35.1797 0.580697 35.7748C0.880622 36.3689 1.27451 36.9104 1.74706 37.3781C2.21526 37.8518 2.75626 38.2471 3.34939 38.5487C3.94183 38.8509 4.57618 39.0621 5.23119 39.1752C5.88715 39.2833 6.55025 39.342 7.21495 39.3508C7.52084 39.3575 7.82159 39.3614 8.12471 39.3614C8.48674 39.3634 8.8454 39.3634 9.20841 39.3634H108.797C109.153 39.3634 109.515 39.3634 109.871 39.3614C110.172 39.3614 110.482 39.3575 110.783 39.3508C111.447 39.3425 112.109 39.2838 112.763 39.1752C113.42 39.0613 114.057 38.8502 114.652 38.5487C115.245 38.2469 115.785 37.8517 116.253 37.3781C116.724 36.9085 117.119 36.3675 117.423 35.7748C117.722 35.1793 117.928 34.5415 118.036 33.8835C118.146 33.2263 118.208 32.5617 118.219 31.8953C118.223 31.5868 118.223 31.2881 118.223 30.9797C118.231 30.6189 118.231 30.2601 118.231 29.8934V9.10783C118.231 8.74404 118.231 8.38332 118.223 8.0235C118.223 7.71889 118.223 7.4134 118.219 7.10879C118.208 6.44236 118.146 5.77775 118.036 5.12048C117.928 4.46289 117.721 3.82554 117.423 3.23029C116.812 2.03555 115.843 1.06303 114.652 0.449525C114.057 0.148841 113.42 -0.0610415 112.763 -0.17319C112.109 -0.282633 111.447 -0.341304 110.783 -0.348682C110.482 -0.353548 110.172 -0.359408 109.871 -0.361295C109.515 -0.363281 109.153 -0.363182 108.798 -0.363182Z" fill="#A6A6A6"/>
<path d="M8.1295 38.4945C7.82786 38.4945 7.53355 38.4906 7.23428 38.4839C6.61438 38.4758 5.99591 38.4217 5.38397 38.322C4.81336 38.2234 4.2606 38.0399 3.74392 37.7777C3.23196 37.5178 2.76501 37.1768 2.36096 36.7681C1.95103 36.3641 1.60974 35.8956 1.35061 35.3811C1.08866 34.8633 0.907375 34.3082 0.813069 33.7353C0.71126 33.1196 0.656193 32.4971 0.648341 31.8731C0.642006 31.6636 0.633789 30.9663 0.633789 30.9663V8.02352C0.633789 8.02352 0.642501 7.33685 0.648341 7.13503C0.655884 6.51203 0.710655 5.8905 0.812178 5.27583C0.90667 4.7013 1.08811 4.14463 1.35022 3.62509C1.60834 3.11093 1.9477 2.64206 2.35512 2.23665C2.7621 1.82739 3.23057 1.48472 3.74342 1.22114C4.25893 0.959833 4.81065 0.777739 5.38011 0.680954C5.99407 0.580268 6.61469 0.525855 7.23676 0.518175L8.12999 0.505859H109.866L110.77 0.518473C111.386 0.52582 112.001 0.579802 112.61 0.679961C113.185 0.777987 113.742 0.961382 114.264 1.22412C115.291 1.7553 116.127 2.59568 116.654 3.62747C116.912 4.14346 117.091 4.69561 117.184 5.2652C117.287 5.8849 117.344 6.5113 117.356 7.1394C117.359 7.42067 117.359 7.72279 117.359 8.02352C117.367 8.39596 117.367 8.75042 117.367 9.10786V29.8934C117.367 30.2542 117.367 30.6063 117.359 30.9613C117.359 31.2842 117.359 31.5801 117.355 31.8846C117.344 32.5015 117.287 33.1168 117.186 33.7254C117.094 34.3025 116.913 34.8619 116.651 35.384C116.391 35.8929 116.051 36.3574 115.646 36.7602C115.242 37.1712 114.774 37.5141 114.261 37.7758C113.741 38.0399 113.184 38.224 112.61 38.3218C111.998 38.4221 111.379 38.4762 110.759 38.4838C110.463 38.4907 110.167 38.4943 109.871 38.4944L108.798 38.4964L8.1295 38.4945Z" fill="white"/>
<path d="M24.5143 19.3899C24.5253 18.5278 24.7536 17.6826 25.1777 16.9329C25.6019 16.1831 26.2082 15.5532 26.9402 15.1017C26.4752 14.4354 25.8617 13.887 25.1485 13.5002C24.4352 13.1133 23.6419 12.8987 22.8315 12.8732C21.1029 12.6912 19.427 13.9111 18.546 13.9111C17.6482 13.9111 16.2918 12.8913 14.8313 12.9215C13.8866 12.9521 12.9659 13.2277 12.159 13.7215C11.352 14.2152 10.6863 14.9102 10.2267 15.7388C8.23571 19.197 9.72084 24.2793 11.628 27.0748C12.5821 28.4436 13.6973 29.9725 15.1565 29.9183C16.5844 29.8589 17.1177 29.0048 18.8412 29.0048C20.5489 29.0048 21.0492 29.9183 22.538 29.8838C24.0703 29.8589 25.0357 28.509 25.9563 27.1272C26.6419 26.1519 27.1695 25.0739 27.5195 23.9332C26.6293 23.5555 25.8697 22.9233 25.3352 22.1153C24.8008 21.3074 24.5153 20.3595 24.5143 19.3899ZM21.7022 11.0349C22.5377 10.0287 22.9492 8.73541 22.8496 7.42969C21.5732 7.56421 20.3943 8.17622 19.5476 9.14379C19.1336 9.61646 18.8165 10.1664 18.6145 10.762C18.4124 11.3577 18.3294 11.9875 18.3701 12.6154C19.0086 12.622 19.6401 12.4832 20.2173 12.2094C20.7945 11.9356 21.3022 11.5341 21.7022 11.0349ZM41.6455 26.5906H36.9596L35.8343 29.9241H33.8495L38.2879 17.591H40.35L44.7883 29.9241H42.7698L41.6455 26.5906ZM37.4449 25.0523H41.1592L39.3282 19.6423H39.2769L37.4449 25.0523ZM54.3736 25.4287C54.3736 28.2229 52.8829 30.0181 50.6333 30.0181C50.0634 30.048 49.4967 29.9163 48.998 29.6381C48.4993 29.3599 48.0887 28.9464 47.8133 28.445H47.7708V32.8987H45.9309V20.9323H47.7118V22.4279H47.7456C48.0337 21.9288 48.4511 21.5175 48.9537 21.2375C49.4562 20.9576 50.025 20.8196 50.5995 20.8382C52.8742 20.8382 54.3736 22.6423 54.3736 25.4287ZM52.4826 25.4287C52.4826 23.6082 51.545 22.4114 50.1142 22.4114C48.7085 22.4114 47.763 23.6334 47.763 25.4286C47.763 27.2404 48.7085 28.4538 50.1142 28.4538C51.545 28.4538 52.4826 27.2658 52.4826 25.4287ZM64.2388 25.4287C64.2388 28.2229 62.7476 30.0181 60.498 30.0181C59.9281 30.048 59.3614 29.9163 58.8626 29.6381C58.3639 29.3599 57.9534 28.9464 57.678 28.445H57.6354V32.8987H55.7957V20.9323H57.5764V22.4279H57.6103C57.8983 21.9288 58.3158 21.5175 58.8183 21.2375C59.3209 20.9576 59.8896 20.8196 60.4641 20.8382C62.7389 20.8382 64.2388 22.6423 64.2388 25.4287ZM62.3474 25.4287C62.3474 23.6082 61.4096 22.4114 59.9788 22.4114C58.5731 22.4114 57.6277 23.6334 57.6277 25.4286C57.6277 27.2404 58.5731 28.4538 59.9788 28.4538C61.4096 28.4538 62.3474 27.2658 62.3474 25.4287ZM70.7576 26.4878C70.8939 27.7108 72.0782 28.5139 73.6965 28.5139C75.2471 28.5139 76.3628 27.7108 76.3628 26.608C76.3628 25.6507 75.6899 25.0775 74.0968 24.6847L72.5036 24.2997C70.2462 23.7526 69.1982 22.6935 69.1982 20.9749C69.1982 18.8469 71.0467 17.3854 73.6704 17.3854C76.2691 17.3854 78.0498 18.8469 78.1098 20.9749H76.2526C76.1415 19.7441 75.1273 19.0011 73.6453 19.0011C72.1632 19.0011 71.1491 19.7529 71.1491 20.8468C71.1491 21.7188 71.7969 22.2319 73.3814 22.6246L74.7357 22.9583C77.258 23.5567 78.305 24.5732 78.305 26.3771C78.305 28.6845 76.474 30.1297 73.5602 30.1297C70.8338 30.1297 68.9932 28.7184 68.8743 26.4877L70.7576 26.4878ZM82.2774 18.8044V20.9323H83.9818V22.3939H82.2774V27.351C82.2774 28.1211 82.6186 28.4799 83.3679 28.4799C83.5702 28.4764 83.7722 28.4621 83.9731 28.4372V29.8902C83.6362 29.9533 83.2938 29.9819 82.9512 29.9754C81.1367 29.9754 80.4289 29.2917 80.4289 27.5478V22.3939H79.1258V20.9323H80.4289V18.8044H82.2774ZM84.9679 25.4287C84.9679 22.5995 86.6287 20.8217 89.2187 20.8217C91.8173 20.8217 93.4704 22.5995 93.4704 25.4287C93.4704 28.2656 91.8259 30.0356 89.2186 30.0356C86.6123 30.0356 84.9679 28.2656 84.9679 25.4287ZM91.5959 25.4287C91.5959 23.488 90.7094 22.3425 89.2186 22.3425C87.7279 22.3425 86.8414 23.4966 86.8414 25.4287C86.8414 27.3772 87.7279 28.5139 89.2186 28.5139C90.7094 28.5139 91.5959 27.3772 91.5959 25.4287ZM94.9871 20.9323H96.7418V22.4627H96.7844C96.9031 21.9847 97.1823 21.5623 97.5749 21.2665C97.9675 20.9706 98.4497 20.8194 98.9403 20.8382C99.1523 20.8374 99.3637 20.8605 99.5706 20.907V22.6334C99.303 22.5514 99.0238 22.5137 98.744 22.5219C98.4768 22.511 98.2103 22.5583 97.963 22.6605C97.7156 22.7627 97.4933 22.9173 97.3111 23.1139C97.129 23.3104 96.9914 23.5442 96.9079 23.7991C96.8243 24.054 96.7967 24.3241 96.827 24.5907V29.9241H94.9871V20.9323ZM108.053 27.283C107.805 28.9154 106.221 30.0356 104.194 30.0356C101.586 30.0356 99.9679 28.2831 99.9679 25.4713C99.9679 22.6509 101.595 20.8217 104.116 20.8217C106.596 20.8217 108.155 22.5307 108.155 25.257V25.8893H101.825V26.0009C101.796 26.3318 101.837 26.6652 101.946 26.9789C102.055 27.2926 102.23 27.5794 102.458 27.8203C102.686 28.0612 102.962 28.2506 103.269 28.3761C103.575 28.5015 103.905 28.5601 104.236 28.5478C104.671 28.5887 105.107 28.4877 105.48 28.2598C105.853 28.0319 106.143 27.6893 106.306 27.283H108.053ZM101.834 24.5994H106.315C106.331 24.3019 106.286 24.0041 106.183 23.7248C106.079 23.4455 105.919 23.1907 105.712 22.9764C105.506 22.7621 105.258 22.593 104.983 22.4795C104.708 22.3661 104.413 22.3108 104.116 22.3172C103.817 22.3154 103.52 22.3732 103.242 22.4871C102.965 22.6011 102.713 22.769 102.501 22.9812C102.289 23.1934 102.121 23.4456 102.006 23.7233C101.892 24.0011 101.833 24.2988 101.834 24.5994ZM37.2148 8.30774C37.6005 8.27997 37.9876 8.33843 38.348 8.47889C38.7085 8.61936 39.0334 8.83834 39.2993 9.12004C39.5652 9.40173 39.7654 9.73912 39.8856 10.1079C40.0058 10.4766 40.0429 10.8675 39.9942 11.2524C39.9942 13.1455 38.9743 14.2339 37.2148 14.2339H35.0812V8.30764L37.2148 8.30774ZM35.9987 13.3957H37.1124C37.388 13.4122 37.6638 13.3669 37.9197 13.263C38.1756 13.1591 38.4053 12.9992 38.5918 12.7951C38.7784 12.5909 38.9173 12.3476 38.9983 12.0828C39.0794 11.818 39.1005 11.5384 39.0603 11.2644C39.0976 10.9914 39.0743 10.7136 38.992 10.4507C38.9098 10.1879 38.7705 9.94655 38.5844 9.74401C38.3982 9.54148 38.1697 9.38276 37.9152 9.27923C37.6607 9.1757 37.3866 9.12992 37.1124 9.14518H35.9987V13.3957ZM41.0306 11.9958C41.0026 11.7019 41.0361 11.4053 41.129 11.1252C41.2219 10.8451 41.3721 10.5875 41.57 10.369C41.7679 10.1505 42.0092 9.97595 42.2783 9.85649C42.5474 9.73704 42.8385 9.67533 43.1328 9.67533C43.427 9.67533 43.7181 9.73704 43.9872 9.85649C44.2563 9.97595 44.4976 10.1505 44.6955 10.369C44.8934 10.5875 45.0437 10.8451 45.1366 11.1252C45.2294 11.4053 45.2629 11.7019 45.2349 11.9958C45.2636 12.29 45.2305 12.587 45.1379 12.8677C45.0453 13.1483 44.8952 13.4064 44.6972 13.6254C44.4992 13.8444 44.2577 14.0194 43.9883 14.1391C43.7189 14.2589 43.4274 14.3207 43.1328 14.3207C42.8381 14.3207 42.5466 14.2589 42.2772 14.1391C42.0078 14.0194 41.7663 13.8444 41.5683 13.6254C41.3704 13.4064 41.2202 13.1483 41.1276 12.8677C41.035 12.587 41.002 12.29 41.0306 11.9958ZM44.3301 11.9958C44.3301 11.0263 43.896 10.4594 43.1342 10.4594C42.3695 10.4594 41.9394 11.0263 41.9394 11.9958C41.9394 12.9729 42.3696 13.5355 43.1342 13.5355C43.896 13.5355 44.3301 12.9691 44.3301 11.9958ZM50.8238 14.2338H49.911L48.9898 10.94H48.9202L48.0028 14.2338H47.0989L45.8702 9.76154H46.7624L47.561 13.1741H47.6267L48.5432 9.76154H49.3872L50.3037 13.1741H50.3733L51.1679 9.76154H52.0477L50.8238 14.2338ZM53.0811 9.76164H53.928V10.472H53.9937C54.1052 10.2169 54.2933 10.0029 54.5318 9.86012C54.7702 9.71728 55.0472 9.65265 55.324 9.67523C55.5409 9.65888 55.7587 9.69169 55.9612 9.77124C56.1638 9.85079 56.3459 9.97504 56.494 10.1348C56.6422 10.2945 56.7527 10.4857 56.8172 10.6941C56.8818 10.9024 56.8988 11.1227 56.8669 11.3386V14.2337H55.9872V11.5603C55.9872 10.8416 55.6758 10.4842 55.0252 10.4842C54.878 10.4773 54.731 10.5024 54.5943 10.5579C54.4576 10.6133 54.3345 10.6978 54.2334 10.8054C54.1324 10.9131 54.0556 11.0414 54.0086 11.1815C53.9615 11.3217 53.9452 11.4704 53.9608 11.6175V14.2338H53.0811V9.76164ZM58.2687 8.01575H59.1484V14.2338H58.2687V8.01575ZM60.3714 11.9958C60.3433 11.7018 60.3768 11.4053 60.4697 11.1251C60.5626 10.8449 60.7129 10.5873 60.9109 10.3688C61.1088 10.1503 61.3501 9.97568 61.6193 9.85621C61.8884 9.73674 62.1795 9.67502 62.4738 9.67502C62.7681 9.67502 63.0592 9.73674 63.3284 9.85621C63.5975 9.97568 63.8388 10.1503 64.0368 10.3688C64.2347 10.5873 64.385 10.8449 64.4779 11.1251C64.5708 11.4053 64.6043 11.7018 64.5763 11.9958C64.6048 12.29 64.5716 12.5869 64.4789 12.8674C64.3862 13.148 64.236 13.406 64.038 13.6249C63.84 13.8438 63.5986 14.0187 63.3292 14.1384C63.0598 14.2581 62.7684 14.3199 62.4738 14.3199C62.1792 14.3199 61.8878 14.2581 61.6184 14.1384C61.3491 14.0187 61.1076 13.8438 60.9096 13.6249C60.7116 13.406 60.5614 13.148 60.4687 12.8674C60.376 12.5869 60.3429 12.29 60.3714 11.9958ZM63.6709 11.9958C63.6709 11.0263 63.2368 10.4594 62.475 10.4594C61.7103 10.4594 61.2801 11.0263 61.2801 11.9958C61.2801 12.9729 61.7104 13.5355 62.475 13.5355C63.2368 13.5355 63.6709 12.9691 63.6709 11.9958ZM65.5024 12.9691C65.5024 12.164 66.0998 11.6999 67.1603 11.634L68.3678 11.5641V11.1781C68.3678 10.7057 68.0565 10.4391 67.4552 10.4391C66.9641 10.4391 66.6238 10.6199 66.5262 10.9362H65.6744C65.7643 10.1679 66.4846 9.67533 67.4958 9.67533C68.6134 9.67533 69.2437 10.2335 69.2437 11.1781V14.2338H68.3968V13.6053H68.3272C68.1859 13.8307 67.9875 14.0145 67.7523 14.1379C67.5171 14.2612 67.2534 14.3197 66.9883 14.3075C66.8012 14.327 66.612 14.3069 66.4331 14.2486C66.2541 14.1904 66.0894 14.0951 65.9494 13.969C65.8094 13.8429 65.6973 13.6888 65.6203 13.5165C65.5433 13.3443 65.5031 13.1578 65.5024 12.9691ZM68.3678 12.5869V12.213L67.2792 12.2828C66.6654 12.324 66.3869 12.5336 66.3869 12.9277C66.3869 13.3303 66.735 13.5646 67.2135 13.5646C67.3537 13.5788 67.4954 13.5646 67.63 13.5228C67.7647 13.481 67.8895 13.4124 67.9972 13.3212C68.1049 13.23 68.1932 13.118 68.2569 12.9918C68.3206 12.8657 68.3583 12.728 68.3678 12.5869ZM70.3999 11.9958C70.3999 10.5826 71.124 9.68745 72.2503 9.68745C72.5289 9.67456 72.8054 9.7415 73.0474 9.88044C73.2895 10.0194 73.4872 10.2246 73.6173 10.472H73.683V8.01565H74.5627V14.2337H73.7197V13.527H73.6502C73.51 13.7728 73.3055 13.9755 73.0587 14.113C72.812 14.2506 72.5324 14.3178 72.2504 14.3074C71.1163 14.3074 70.3999 13.4122 70.3999 11.9958ZM71.3087 11.9958C71.3087 12.9442 71.7544 13.5151 72.4996 13.5151C73.2411 13.5151 73.6994 12.9361 73.6994 11.9995C73.6994 11.0676 73.2364 10.4803 72.4996 10.4803C71.7592 10.4803 71.3087 11.0549 71.3087 11.9958ZM78.2025 11.9958C78.1745 11.7019 78.208 11.4053 78.3009 11.1252C78.3938 10.8451 78.544 10.5875 78.742 10.369C78.9399 10.1505 79.1811 9.97595 79.4503 9.85649C79.7194 9.73704 80.0104 9.67533 80.3047 9.67533C80.599 9.67533 80.89 9.73704 81.1591 9.85649C81.4282 9.97595 81.6695 10.1505 81.8674 10.369C82.0654 10.5875 82.2156 10.8451 82.3085 11.1252C82.4014 11.4053 82.4349 11.7019 82.4069 11.9958C82.4355 12.29 82.4024 12.587 82.3098 12.8677C82.2172 13.1483 82.0671 13.4064 81.8691 13.6254C81.6711 13.8444 81.4297 14.0194 81.1602 14.1391C80.8908 14.2589 80.5994 14.3207 80.3047 14.3207C80.01 14.3207 79.7186 14.2589 79.4492 14.1391C79.1797 14.0194 78.9383 13.8444 78.7403 13.6254C78.5423 13.4064 78.3922 13.1483 78.2996 12.8677C78.2069 12.587 78.1739 12.29 78.2025 11.9958ZM81.502 11.9958C81.502 11.0263 81.068 10.4594 80.3062 10.4594C79.5414 10.4594 79.1113 11.0263 79.1113 11.9958C79.1113 12.9729 79.5415 13.5355 80.3062 13.5355C81.068 13.5355 81.502 12.9691 81.502 11.9958ZM83.5873 9.76164H84.4342V10.472H84.4999C84.6114 10.2169 84.7995 10.0029 85.038 9.86012C85.2765 9.71728 85.5534 9.65265 85.8302 9.67523C86.0471 9.65888 86.2649 9.69169 86.4674 9.77124C86.67 9.85079 86.8521 9.97504 87.0002 10.1348C87.1484 10.2945 87.2589 10.4857 87.3234 10.6941C87.388 10.9024 87.405 11.1227 87.3731 11.3386V14.2337H86.4934V11.5603C86.4934 10.8416 86.182 10.4842 85.5314 10.4842C85.3842 10.4773 85.2372 10.5024 85.1005 10.5579C84.9639 10.6133 84.8408 10.6978 84.7397 10.8054C84.6386 10.9131 84.5619 11.0414 84.5148 11.1815C84.4678 11.3217 84.4515 11.4704 84.467 11.6175V14.2338H83.5874L83.5873 9.76164ZM92.3442 8.6482V9.782H93.31V10.5254H92.3442V12.825C92.3442 13.2934 92.5365 13.4986 92.9745 13.4986C93.0866 13.4982 93.1986 13.4914 93.3099 13.4782V14.2134C93.1519 14.2418 92.9918 14.2568 92.8313 14.2585C91.8531 14.2585 91.4634 13.9132 91.4634 13.051V10.5254H90.7558V9.7819H91.4634V8.6483L92.3442 8.6482ZM94.5116 8.01575H95.3836V10.4803H95.4532C95.5702 10.2227 95.7634 10.0076 96.0066 9.86424C96.2499 9.72087 96.5312 9.65622 96.8124 9.67911C97.0282 9.66732 97.2439 9.70346 97.4442 9.78495C97.6444 9.86644 97.8243 9.99126 97.9709 10.1505C98.1176 10.3098 98.2273 10.4995 98.2925 10.7062C98.3576 10.913 98.3764 11.1316 98.3476 11.3464V14.2338H97.467V11.5641C97.467 10.8497 97.1353 10.488 96.5137 10.488C96.3625 10.4756 96.2105 10.4965 96.0681 10.5492C95.9258 10.6019 95.7967 10.6851 95.6898 10.7931C95.5829 10.9011 95.5008 11.0312 95.4492 11.1744C95.3977 11.3175 95.3779 11.4702 95.3913 11.6218V14.2338H94.5116V8.01575ZM103.477 13.0262C103.358 13.4349 103.099 13.7885 102.746 14.025C102.393 14.2616 101.968 14.366 101.546 14.3201C101.252 14.3278 100.96 14.2714 100.69 14.1547C100.421 14.038 100.179 13.8638 99.9835 13.6441C99.7875 13.4245 99.6416 13.1647 99.5558 12.8828C99.47 12.601 99.4463 12.3037 99.4865 12.0118C99.4474 11.7189 99.4714 11.421 99.557 11.1382C99.6426 10.8555 99.7878 10.5945 99.9827 10.373C100.178 10.1514 100.418 9.97444 100.687 9.85406C100.956 9.73369 101.247 9.6727 101.542 9.67523C102.782 9.67523 103.53 10.5254 103.53 11.9297V12.2377H100.383V12.2872C100.369 12.4513 100.389 12.6165 100.443 12.7721C100.497 12.9278 100.582 13.0705 100.694 13.1912C100.806 13.3118 100.941 13.4077 101.092 13.4726C101.243 13.5376 101.406 13.5702 101.57 13.5683C101.78 13.5937 101.993 13.5557 102.182 13.4591C102.371 13.3626 102.527 13.2119 102.63 13.0262H103.477ZM100.383 11.585H102.634C102.645 11.4349 102.625 11.2841 102.575 11.1424C102.524 11.0007 102.445 10.8711 102.341 10.762C102.238 10.6529 102.113 10.5666 101.974 10.5089C101.836 10.4511 101.687 10.423 101.537 10.4265C101.385 10.4245 101.234 10.4532 101.093 10.5107C100.952 10.5683 100.824 10.6536 100.716 10.7615C100.609 10.8695 100.524 10.998 100.466 11.1394C100.409 11.2808 100.381 11.4323 100.383 11.585Z" fill="black"/>
</g>
<defs>
<clipPath id="clip0_1202_762">
<rect width="118" height="40" fill="white"/>
</clipPath>
</defs>
</svg>
