<svg width="23" height="23" viewBox="0 0 23 23" fill="none" xmlns="http://www.w3.org/2000/svg">
<path d="M20.4344 0H1.62924C0.728415 0 0 0.711175 0 1.59045V20.4732C0 21.3525 0.728415 22.068 1.62924 22.068H20.4344C21.3352 22.068 22.068 21.3525 22.068 20.4775V1.59045C22.068 0.711175 21.3352 0 20.4344 0ZM6.54712 18.8052H3.2714V8.27118H6.54712V18.8052ZM4.90926 6.8359C3.85758 6.8359 3.00848 5.9868 3.00848 4.93943C3.00848 3.89206 3.85758 3.04297 4.90926 3.04297C5.95663 3.04297 6.80573 3.89206 6.80573 4.93943C6.80573 5.98249 5.95663 6.8359 4.90926 6.8359ZM18.8052 18.8052H15.5338V13.6847C15.5338 12.465 15.5122 10.8917 13.8313 10.8917C12.1288 10.8917 11.8702 12.2236 11.8702 13.5985V18.8052H8.60306V8.27118H11.7408V9.71077H11.7839C12.2193 8.88322 13.2882 8.00826 14.8786 8.00826C18.1931 8.00826 18.8052 10.1892 18.8052 13.0253V18.8052Z" fill="black"/>
</svg>
