<svg width="224" height="32" viewBox="0 0 224 32" fill="none" xmlns="http://www.w3.org/2000/svg">
<path d="M145.706 6.51583C145.706 6.51583 141.94 6.48757 139.822 6.48757C141.942 6.48757 140.072 6.46701 138.088 6.46701L138.116 6.41305C138.36 6.29228 140.447 5.14884 140.285 1.01189C140.277 0.814038 140.236 0.783203 140.069 0.783203H140.048C139.072 0.790912 138.257 0.796051 137.222 0.783203H137.209C137.101 0.783203 137.045 0.796051 137.011 0.829455C136.978 0.862859 136.962 0.929666 136.962 1.03759C136.97 2.3018 136.97 6.42076 136.97 6.46444L136.962 6.51326H133.506V8.76417H136.962C136.962 8.76417 136.962 16.0745 136.968 18.2432V18.292H136.96V20.2474C136.96 21.6452 137.122 22.6191 137.461 23.2229C137.779 23.8936 138.317 24.3638 139.054 24.6105C139.725 24.8803 140.737 25.0036 142.253 25.0036C142.865 25.0036 144.874 24.924 144.874 24.924L144.825 22.4752C144.134 22.5214 143.042 22.542 142.546 22.542C141.487 22.542 140.778 22.3853 140.385 22.0615C139.953 21.7711 139.753 21.1365 139.753 20.0675V18.2894H139.732V18.2406C139.732 15.0492 139.74 10.0721 139.745 9.03911C139.745 8.88494 139.874 8.7616 140.028 8.7616H141.295C142.672 8.7616 145.719 8.76674 145.719 8.76674V6.51069L145.714 6.51583H145.706Z" fill="black"/>
<path d="M4.92322 24.5621C3.34039 23.8734 2.13528 22.9099 1.27449 21.6688C0.413695 20.4303 0 19.017 0 17.3648L2.99608 17.3982C2.99608 19.0864 3.65131 20.4277 5.02858 21.3913C6.37244 22.3908 8.16084 22.8713 10.4349 22.8713C12.5008 22.8713 14.189 22.4936 15.4275 21.6996C16.666 20.9082 17.2878 19.8393 17.2878 18.498C17.2878 17.6706 16.9769 16.9485 16.427 16.3627C15.8412 15.7768 15.0163 15.3631 13.9474 15.0882L7.26664 13.5388C5.09795 13.0557 3.47915 12.2309 2.41279 11.0951C1.31046 9.99281 0.793986 8.58214 0.793986 6.86055C0.793986 5.55266 1.17171 4.41692 1.96569 3.45078C2.7237 2.4872 3.82603 1.72919 5.27011 1.17931C6.71676 0.662836 8.40237 0.387896 10.3321 0.387896C12.2618 0.387896 14.0168 0.732214 15.4634 1.42085C16.9101 2.10948 18.0458 3.03965 18.8372 4.27817C19.6287 5.51668 20.0424 6.9993 20.0424 8.65151H17.0463C17.0463 6.92993 16.427 5.58606 15.2219 4.58908C13.9834 3.58953 12.3286 3.07306 10.2293 3.07306C8.13 3.07306 6.68335 3.45078 5.51165 4.13941C4.33994 4.82805 3.79006 5.79162 3.79006 6.96333C3.79006 7.85753 4.13438 8.61554 4.85642 9.2348C5.54505 9.85406 6.61141 10.3371 8.05805 10.6814L14.3585 12.1975C16.1495 12.6446 17.5962 13.3332 18.6625 14.2634C19.7289 15.1935 20.2813 16.6042 20.2813 18.498C20.2813 19.9086 19.8676 21.1497 19.0762 22.2161C18.2488 23.2824 17.1131 24.1098 15.633 24.6957C14.117 25.2815 12.3954 25.5565 10.4349 25.5565C8.33556 25.5565 6.50863 25.2456 4.92579 24.5569L4.92322 24.5621ZM27.494 24.0096C25.703 22.9767 24.3258 21.4966 23.3288 19.5669C22.2958 17.6397 21.8128 15.4017 21.8128 12.8527C21.8128 10.3037 22.2958 8.17101 23.3288 6.27727C24.3283 4.38352 25.7056 2.93687 27.494 1.90392C29.2824 0.870968 31.3149 0.354492 33.5889 0.354492C35.863 0.354492 37.8595 0.870968 39.6479 1.90392C41.4389 2.93687 42.8161 4.38352 43.8491 6.27727C44.8486 8.17101 45.3651 10.3757 45.3651 12.8527C45.3651 15.3297 44.8486 17.6397 43.8491 19.5669C42.8161 21.494 41.4389 22.9767 39.6479 24.0096C37.8569 25.0426 35.8604 25.559 33.5889 25.559C31.3175 25.559 29.285 25.0426 27.494 24.0096ZM38.0985 21.6354C39.4423 20.808 40.5087 19.6388 41.2667 18.1228C42.0247 16.6068 42.4024 14.8518 42.4024 12.8553C42.4024 10.8587 42.0247 9.17056 41.2667 7.69051C40.5087 6.21046 39.4423 5.07472 38.0985 4.24733C36.7546 3.45592 35.2411 3.04222 33.5889 3.04222C31.9367 3.04222 30.3873 3.45592 29.0434 4.24733C27.6996 5.07472 26.6666 6.21046 25.9112 7.69051C25.1532 9.17056 24.7754 10.8921 24.7754 12.8553C24.7754 14.8184 25.1532 16.6094 25.9112 18.1228C26.6692 19.6388 27.7021 20.808 29.0434 21.6354C30.3873 22.4628 31.9007 22.8739 33.5889 22.8739C35.2771 22.8739 36.7572 22.4602 38.0985 21.6354ZM51.1748 0.906942V22.3908H63.8118V25.0066H48.2841V0.906942H51.1774H51.1748Z" fill="black"/>
<path d="M69.6655 17.3385L72.7104 17.3719C72.7104 20.7739 75.6859 22.9503 80.2751 22.9503C84.8643 22.9503 87.2437 21.3701 87.2437 18.4948C87.2437 15.8995 84.723 14.9514 81.5702 14.3218L78.8388 13.7617C74.671 12.9189 70.4672 11.6572 70.4672 6.64151C70.4672 2.60734 74.1802 0.0840607 80.0644 0.0480873C85.8407 0.0146833 89.695 3.53494 89.695 8.72283H86.6501C86.6501 5.21542 83.9881 2.78207 80.067 2.78207C76.1459 2.78207 73.5173 4.32379 73.5173 6.74429C73.5173 9.37549 76.1793 10.2877 79.3655 10.9558L82.0275 11.5159C86.1619 12.3947 90.2912 13.6204 90.2912 18.356C90.2912 22.845 86.3675 25.6895 80.2751 25.6895C73.8307 25.6895 69.6655 22.3953 69.6655 17.341H69.6707L69.6655 17.3385Z" fill="black"/>
<path d="M105.752 6.51079H108.45L108.553 12.3462H108.694C109.501 8.48676 111.739 6.49023 116.223 6.49023V9.01352C113.702 9.1163 111.914 9.75097 110.691 10.9792C109.151 12.5209 108.555 15.0134 108.555 18.4154V24.8701H105.755V6.51079H105.752Z" fill="black"/>
<path d="M116.301 20.4126C116.301 17.0466 118.647 15.1862 122.85 15.1862H124.986C128.244 15.1862 130.102 14.8342 130.102 12.3803C130.102 10.8 128.876 8.66217 124.849 8.66217C121.838 8.66217 119.669 10.2424 119.245 13.0098H116.372C116.758 8.8369 120.052 6.20312 124.88 6.20312C129.708 6.20312 132.9 8.5157 132.9 12.4445V24.8631H130.238L130.096 19.8807H129.955C129.256 23.2828 126.383 25.4232 122.532 25.4232C118.68 25.4232 116.301 23.4961 116.301 20.4075L116.295 20.4126H116.301ZM123.166 23.0464C127.437 23.0464 130.102 19.7471 130.102 16.8384V14.8034H129.96C129.716 16.3836 128.21 17.0825 124.986 17.0825H122.781C120.538 17.0825 119.281 18.136 119.281 20.0298C119.281 21.9235 120.435 23.0464 123.166 23.0464Z" fill="black"/>
<path d="M145.426 15.7506C145.426 9.6814 149.067 6.20996 154.325 6.20996C159.23 6.20996 162.871 9.8587 162.871 14.9798C162.871 15.4037 162.837 15.82 162.801 16.2774H148.235C148.304 20.6636 150.894 22.9762 154.397 22.9762C157.408 22.9762 159.333 21.0105 159.859 18.5206H162.732C162.205 22.6601 158.88 25.4301 154.397 25.4301C149.178 25.4301 145.434 22.2721 145.434 15.7481L145.429 15.7532L145.426 15.7506ZM159.993 14.3117C159.782 10.9096 157.683 8.66643 154.217 8.66643C150.961 8.66643 148.474 10.5936 148.23 14.3117H159.996H159.993Z" fill="black"/>
<path d="M168.54 17.5035C167.525 17.9969 167.034 18.8705 167.034 19.6799C167.034 20.7334 167.91 21.7484 169.59 21.7484H175.894C179.149 21.7484 181.074 23.398 181.074 26.096C181.074 29.6394 177.957 31.5666 171.97 31.5666C165.983 31.5666 163.634 29.9529 163.634 27.3551C163.634 25.6027 165.104 24.5158 166.787 23.953V23.8117C165.248 23.2516 164.441 22.1621 164.441 20.7231C164.441 19.1429 165.595 17.8838 167.627 17.1797V17.005C165.98 15.9181 165.071 14.1991 165.071 12.1306C165.071 8.97266 167.103 6.83224 170.955 6.20271L179.799 3.99805V6.38514L175.192 6.41341L175.159 6.58814C177.749 7.39754 179.362 9.42747 179.362 12.1306C179.362 15.674 176.703 18.1999 172.219 18.1999C170.816 18.1999 169.59 17.9557 168.54 17.4984L168.534 17.5035H168.54ZM172.25 29.1127C176.102 29.1127 178.237 28.0257 178.237 26.2733C178.237 24.9757 177.153 24.2049 175.331 24.2049H169.413C168.958 24.2049 168.537 24.1714 168.152 24.1355C166.959 24.6288 166.294 25.541 166.294 26.4147C166.294 28.239 167.905 29.1178 172.247 29.1178V29.1127H172.25ZM172.217 15.7511C174.915 15.7511 176.556 14.3456 176.556 12.1024C176.556 9.85915 174.909 8.48702 172.217 8.48702C169.524 8.48702 167.877 9.89255 167.877 12.1024C167.877 14.3122 169.524 15.7511 172.217 15.7511Z" fill="black"/>
<path d="M183.913 0C184.964 0 185.804 0.840237 185.804 1.89375C185.804 2.94725 184.964 3.78749 183.913 3.78749C182.862 3.78749 182.021 2.94725 182.021 1.89375C182.021 0.840237 182.862 0 183.913 0ZM185.31 6.76815V24.8679H182.51V6.76815H185.31Z" fill="black"/>
<path d="M188.697 15.7506C188.697 9.6814 192.338 6.20996 197.596 6.20996C202.498 6.20996 206.142 9.8587 206.142 14.9798C206.142 15.4037 206.108 15.82 206.072 16.2774H191.506C191.575 20.6636 194.168 22.9762 197.668 22.9762C200.679 22.9762 202.604 21.0105 203.13 18.5206H206.003C205.479 22.6601 202.151 25.4301 197.668 25.4301C192.449 25.4301 188.705 22.2721 188.705 15.7481L188.7 15.7532L188.697 15.7506ZM199.433 14.3117H203.264C203.053 10.9096 200.954 8.66643 197.488 8.66643C194.232 8.66643 191.745 10.5936 191.501 14.3117H199.435" fill="black"/>
<path d="M207.714 19.1167H210.587C210.831 21.6066 212.761 22.9762 216.05 22.9762C218.889 22.9762 220.672 21.8533 220.672 20.0289C220.672 18.2045 218.922 17.539 216.715 17.1536L214.51 16.7682C211.358 16.208 208.171 15.2958 208.171 11.6111C208.171 8.27843 210.831 6.20996 215.384 6.20996C219.937 6.20996 223.018 8.63046 223.018 12.5233H220.145C220.145 10.1388 218.254 8.66386 215.381 8.66386C212.509 8.66386 210.97 9.75078 210.97 11.5032C210.97 13.2556 212.827 13.8543 215.137 14.2757L217.17 14.6612C220.356 15.2573 223.542 16.2029 223.542 19.921C223.542 23.2871 220.636 25.4301 216.047 25.4301C210.97 25.4301 207.956 23.1123 207.711 19.1167H207.714Z" fill="black"/>
<path d="M103.489 6.51583C103.489 6.51583 99.7223 6.48757 97.605 6.48757C99.7248 6.48757 97.8542 6.46701 95.8705 6.46701L95.8988 6.41305C96.1429 6.29228 98.2294 5.14884 98.0675 1.01189C98.0598 0.814038 98.0187 0.783203 97.8517 0.783203H97.8311C96.8547 0.790912 96.0401 0.796051 95.0046 0.783203H94.9918C94.8838 0.783203 94.8273 0.796051 94.7939 0.829455C94.7605 0.862859 94.7451 0.929666 94.7451 1.03759C94.7528 2.3018 94.7528 6.42076 94.7528 6.46444L94.7451 6.51326H91.2891V8.76417H94.7451C94.7451 8.76417 94.7451 16.0745 94.7502 18.2432V18.292H94.7425V20.2474C94.7425 21.6452 94.9044 22.6191 95.2436 23.2229C95.5622 23.8936 96.0992 24.3638 96.8367 24.6105C97.5073 24.8803 98.5197 25.0036 100.036 25.0036C100.647 25.0036 102.657 24.924 102.657 24.924L102.608 22.4752C101.917 22.5214 100.825 22.542 100.329 22.542C99.27 22.542 98.5608 22.3853 98.1677 22.0615C97.736 21.7711 97.5356 21.1365 97.5356 20.0675V18.2894H97.515V18.2406C97.515 15.0492 97.5227 10.0721 97.5279 9.03911C97.5279 8.88494 97.6564 8.7616 97.8105 8.7616H99.0773C100.455 8.7616 103.502 8.76674 103.502 8.76674V6.51069L103.497 6.51583H103.489Z" fill="black"/>
</svg>
