<svg width="65" height="55" viewBox="0 0 65 55" fill="none" xmlns="http://www.w3.org/2000/svg">
<path d="M61.0455 54.1211L63.9545 48.8126C55.5909 45.1516 46.5 36.9143 46.5 27.2126C46.5 25.016 46.8636 22.8194 47.9545 20.4397C49.7727 21.9041 51.7727 22.4533 53.9545 22.4533C59.2273 22.4533 64.5 18.4262 64.5 12.2024C64.5 5.42956 59.4091 0.121094 51.9545 0.121094C41.5909 0.121094 35.9545 9.45669 35.9545 19.7075C35.9545 34.1685 44.1364 46.9821 61.0455 54.1211ZM25.5909 54.1211L28.5 48.8126C20.1364 45.1516 11.0455 36.9143 11.0455 27.2126C11.0455 25.016 11.4091 22.8194 12.5 20.4397C14.3182 21.9041 16.3182 22.4533 18.5 22.4533C23.7727 22.4533 29.0455 18.4262 29.0455 12.2024C29.0455 5.42956 23.9545 0.121094 16.5 0.121094C6.13637 0.121094 0.5 9.45669 0.5 19.7075C0.5 34.1685 8.68182 46.9821 25.5909 54.1211Z" fill="black"/>
</svg>
