<svg width="133" height="40" viewBox="0 0 133 40" fill="none" xmlns="http://www.w3.org/2000/svg">
<g clip-path="url(#clip0_1202_751)">
<path d="M128.52 39.64H4.64542C1.92018 39.64 -0.30957 37.4102 -0.30957 34.685V4.955C-0.30957 2.22975 1.92018 0 4.64542 0H128.52C131.246 0 133.475 2.22975 133.475 4.955V34.685C133.475 37.4102 131.246 39.64 128.52 39.64Z" fill="white"/>
<path d="M128.52 0.792799C129.624 0.792799 130.683 1.23131 131.463 2.01188C132.244 2.79244 132.682 3.85111 132.682 4.955V34.685C132.682 35.7888 132.244 36.8475 131.463 37.6281C130.683 38.4086 129.624 38.8472 128.52 38.8472H4.64542C3.54154 38.8472 2.48287 38.4086 1.70231 37.6281C0.921745 36.8475 0.483229 35.7888 0.483229 34.685V4.955C0.483229 3.85111 0.921745 2.79244 1.70231 2.01188C2.48287 1.23131 3.54154 0.792799 4.64542 0.792799H128.52ZM128.52 0H4.64542C1.92018 0 -0.30957 2.22975 -0.30957 4.955V34.685C-0.30957 37.4102 1.92018 39.64 4.64542 39.64H128.52C131.246 39.64 133.475 37.4102 133.475 34.685V4.955C133.475 2.22975 131.246 0 128.52 0Z" fill="#A6A6A6"/>
<path d="M46.6842 10.1474C46.6842 10.9799 46.4364 11.6438 45.9409 12.1294C45.386 12.7141 44.6625 13.0114 43.7607 13.0114C42.8985 13.0114 42.1652 12.7141 41.5706 12.1195C40.976 11.5249 40.6787 10.7817 40.6787 9.90959C40.6787 9.03751 40.976 8.29426 41.5706 7.69966C42.1652 7.10506 42.8985 6.79785 43.7607 6.79785C44.1968 6.79785 44.613 6.87713 44.9995 7.02578C45.386 7.18434 45.7031 7.40236 45.9508 7.67984L45.4058 8.22489C45.2274 8.00687 44.9896 7.82849 44.6923 7.70957C44.3985 7.58176 44.081 7.51759 43.7607 7.52128C43.1166 7.52128 42.5616 7.74921 42.1157 8.19516C41.6697 8.65102 41.4517 9.21589 41.4517 9.89968C41.4517 10.5835 41.6697 11.1483 42.1157 11.6042C42.5616 12.0501 43.1067 12.2781 43.7607 12.2781C44.3553 12.2781 44.8409 12.1096 45.2373 11.7826C45.6337 11.4555 45.8616 10.9898 45.9211 10.415H43.7607V9.70148H46.6445C46.6643 9.86004 46.6842 10.0087 46.6842 10.1474ZM51.2527 6.93659V7.66993H48.5472V9.55283H50.9851V10.2663H48.5472V12.1492H51.2527V12.8826H47.7842V6.93659H51.2527ZM54.4734 7.66993V12.8826H53.7103V7.66993H52.0455V6.93659H56.1284V7.66993H54.4734ZM59.8545 12.8826H59.0915V6.93659H59.8545V12.8826ZM63.2438 7.66993V12.8826H62.4807V7.66993H60.8158V6.93659H64.8987V7.66993H63.2438ZM73.5105 9.90959C73.5105 10.7916 73.2132 11.5249 72.6285 12.1195C72.0339 12.7141 71.3105 13.0114 70.4483 13.0114C69.5862 13.0114 68.8627 12.7141 68.2681 12.1195C67.6834 11.5249 67.3861 10.7916 67.3861 9.90959C67.3861 9.0276 67.6834 8.29426 68.2681 7.69966C68.8528 7.10506 69.5762 6.79785 70.4483 6.79785C71.3105 6.79785 72.0339 7.09515 72.6285 7.69966C73.2231 8.30417 73.5105 9.03751 73.5105 9.90959ZM68.1789 9.90959C68.1789 10.5934 68.397 11.1682 68.8231 11.6141C69.2591 12.0601 69.8042 12.288 70.4483 12.288C71.0925 12.288 71.6375 12.0601 72.0636 11.6141C72.4997 11.1682 72.7177 10.6033 72.7177 9.90959C72.7177 9.21589 72.4997 8.65102 72.0636 8.20507C71.6276 7.75912 71.0925 7.53119 70.4483 7.53119C69.8042 7.53119 69.2591 7.75912 68.8231 8.20507C68.397 8.65102 68.1789 9.2258 68.1789 9.90959ZM75.3439 12.8826H74.5808V6.93659H75.5123L78.406 11.5646H78.4358L78.406 10.415V6.93659H79.1691V12.8826H78.3763L75.3538 8.0366H75.324L75.3538 9.18616V12.8826H75.3439Z" fill="black" stroke="white" stroke-width="0.1982" stroke-miterlimit="10"/>
<path d="M67.2174 21.5542C64.8886 21.5542 62.9858 23.3281 62.9858 25.7659C62.9858 28.1939 64.8886 29.9777 67.2174 29.9777C69.5462 29.9777 71.449 28.1939 71.449 25.7659C71.449 23.3281 69.5462 21.5542 67.2174 21.5542ZM67.2174 28.3227C65.939 28.3227 64.839 27.2722 64.839 25.7659C64.839 24.2497 65.939 23.2091 67.2174 23.2091C68.4958 23.2091 69.5958 24.2497 69.5958 25.7659C69.5958 27.2722 68.4859 28.3227 67.2174 28.3227ZM57.9813 21.5542C55.6524 21.5542 53.7497 23.3281 53.7497 25.7659C53.7497 28.1939 55.6524 29.9777 57.9813 29.9777C60.3101 29.9777 62.2129 28.1939 62.2129 25.7659C62.2129 23.3281 60.3101 21.5542 57.9813 21.5542ZM57.9813 28.3227C56.7029 28.3227 55.6029 27.2722 55.6029 25.7659C55.6029 24.2497 56.7029 23.2091 57.9813 23.2091C59.2597 23.2091 60.3597 24.2497 60.3597 25.7659C60.3597 27.2722 59.2597 28.3227 57.9813 28.3227ZM47.001 22.8524V24.6362H51.2821C51.1533 25.6371 50.8164 26.3803 50.311 26.8858C49.6866 27.5101 48.7154 28.1939 47.0109 28.1939C44.3749 28.1939 42.3136 26.0731 42.3136 23.4371C42.3136 20.801 44.3749 18.6803 47.0109 18.6803C48.4281 18.6803 49.4686 19.2352 50.2317 19.9587L51.4902 18.7001C50.42 17.6794 49.0028 16.8965 47.001 16.8965C43.3938 16.8965 40.3613 19.8298 40.3613 23.447C40.3613 27.0542 43.3938 29.9975 47.001 29.9975C48.9533 29.9975 50.42 29.3633 51.5695 28.1641C52.7488 26.9849 53.1155 25.32 53.1155 23.9821C53.1155 23.5659 53.0858 23.1794 53.0164 22.8623H47.001V22.8524ZM91.9032 24.2398C91.5563 23.2983 90.4861 21.5542 88.296 21.5542C86.1257 21.5542 84.322 23.2587 84.322 25.7659C84.322 28.1245 86.1058 29.9777 88.5041 29.9777C90.4365 29.9777 91.5563 28.7984 92.0122 28.1146L90.5752 27.1533C90.0996 27.8569 89.4455 28.3227 88.5041 28.3227C87.5626 28.3227 86.8887 27.8966 86.4626 27.0443L92.1014 24.7155L91.9032 24.2398ZM86.1554 25.647C86.1058 24.0218 87.414 23.1893 88.3554 23.1893C89.0887 23.1893 89.7131 23.556 89.9212 24.0812L86.1554 25.647ZM81.577 29.7299H83.4301V17.3424H81.577V29.7299ZM78.5445 22.4956H78.4751C78.0589 22.0001 77.2661 21.5542 76.2553 21.5542C74.1445 21.5542 72.212 23.4073 72.212 25.7857C72.212 28.1443 74.1445 29.9876 76.2553 29.9876C77.2562 29.9876 78.0589 29.5416 78.4751 29.0263H78.5346V29.6308C78.5346 31.2462 77.6724 32.1083 76.285 32.1083C75.1553 32.1083 74.4517 31.2957 74.1643 30.6119L72.549 31.2858C73.0147 32.4056 74.2436 33.7732 76.285 33.7732C78.4553 33.7732 80.2887 32.4948 80.2887 29.3831V21.8118H78.5346V22.4956H78.5445ZM76.4139 28.3227C75.1355 28.3227 74.0652 27.2524 74.0652 25.7857C74.0652 24.2992 75.1355 23.2191 76.4139 23.2191C77.6724 23.2191 78.6634 24.3092 78.6634 25.7857C78.6734 27.2524 77.6823 28.3227 76.4139 28.3227ZM100.584 17.3424H96.1546V29.7299H98.0077V25.0326H100.594C102.646 25.0326 104.657 23.5461 104.657 21.1875C104.647 18.8289 102.626 17.3424 100.584 17.3424ZM100.624 23.3082H97.9978V19.0569H100.624C102.011 19.0569 102.794 20.2064 102.794 21.1776C102.794 22.1488 102.011 23.3082 100.624 23.3082ZM112.06 21.5344C110.722 21.5344 109.335 22.129 108.76 23.4272L110.405 24.111C110.752 23.4272 111.406 23.1992 112.09 23.1992C113.041 23.1992 114.022 23.774 114.032 24.7947V24.9236C113.695 24.7353 112.982 24.4479 112.1 24.4479C110.326 24.4479 108.532 25.4191 108.532 27.2326C108.532 28.8876 109.979 29.9579 111.604 29.9579C112.843 29.9579 113.537 29.4029 113.963 28.7488H114.022V29.7002H115.806V24.9533C115.816 22.7632 114.171 21.5344 112.06 21.5344ZM111.832 28.3227C111.228 28.3227 110.385 28.0155 110.385 27.2722C110.385 26.3209 111.436 25.9542 112.347 25.9542C113.16 25.9542 113.547 26.1326 114.032 26.3704C113.963 26.9068 113.703 27.4001 113.298 27.7591C112.894 28.118 112.373 28.3182 111.832 28.3227ZM122.317 21.8019L120.196 27.1731H120.137L117.937 21.8019H115.945L119.245 29.3137L117.362 33.4858H119.294L124.378 21.8019H122.317ZM105.668 29.7299H107.521V17.3424H105.668V29.7299Z" fill="black"/>
<path d="M20.2241 19.2451L9.66992 30.4434V30.4533C9.78412 30.8775 9.99481 31.2696 10.2855 31.599C10.5763 31.9283 10.9392 32.186 11.3459 32.352C11.7527 32.5179 12.1923 32.5877 12.6304 32.5557C13.0686 32.5237 13.4934 32.391 13.8718 32.1677L13.9015 32.1479L25.7737 25.3001L20.2241 19.2451Z" fill="#EA4335"/>
<path d="M30.8972 17.3423L30.8873 17.3324L25.7639 14.3594L19.9863 19.5027L25.7837 25.3L30.8873 22.3567C31.3387 22.1124 31.7159 21.7508 31.9791 21.31C32.2422 20.8693 32.3817 20.3658 32.3827 19.8525C32.3837 19.3391 32.2463 18.835 31.9848 18.3933C31.7234 17.9515 31.3477 17.5884 30.8972 17.3423Z" fill="#FBBC04"/>
<path d="M9.67039 9.19629C9.61093 9.43413 9.57129 9.67197 9.57129 9.92963V29.7199C9.57129 29.9775 9.60102 30.2154 9.67039 30.4532L20.5813 19.5423L9.67039 9.19629Z" fill="#4285F4"/>
<path d="M20.3033 19.8199L25.7637 14.3595L13.9015 7.48195C13.5223 7.2552 13.0957 7.1193 12.6553 7.08488C12.2148 7.05045 11.7723 7.11844 11.3625 7.28353C10.9527 7.44861 10.5866 7.7063 10.293 8.03643C9.99933 8.36657 9.78608 8.76018 9.66992 9.18646L20.3033 19.8199Z" fill="#34A853"/>
</g>
<defs>
<clipPath id="clip0_1202_751">
<rect width="133" height="40" fill="white"/>
</clipPath>
</defs>
</svg>
