<svg width="8" height="7" viewBox="0 0 8 7" fill="none" xmlns="http://www.w3.org/2000/svg">
<path d="M0.646447 6.14645C0.451184 6.34171 0.451184 6.65829 0.646447 6.85355C0.841709 7.04882 1.15829 7.04882 1.35355 6.85355L0.646447 6.14645ZM7.5 0.499999C7.5 0.223857 7.27614 -1.10514e-06 7 -1.23158e-06L2.5 -8.31186e-07C2.22386 -9.99773e-07 2 0.223857 2 0.499999C2 0.776141 2.22386 0.999999 2.5 0.999999L6.5 0.999999L6.5 5C6.5 5.27614 6.72386 5.5 7 5.5C7.27614 5.5 7.5 5.27614 7.5 5L7.5 0.499999ZM1 6.5L1.35355 6.85355L7.35355 0.853552L7 0.499999L6.64645 0.146446L0.646447 6.14645L1 6.5Z" fill="black"/>
</svg>
