<svg width="16" height="16" viewBox="0 0 16 16" fill="none" xmlns="http://www.w3.org/2000/svg">
<path d="M7.75943 0.40695C3.49255 0.40695 0.0212402 3.87826 0.0212402 8.14493C0.0212402 12.4116 3.49255 15.8831 7.75943 15.8831C12.0263 15.8831 15.4976 12.4118 15.4976 8.14493C15.4976 3.87805 12.0263 0.406738 7.75943 0.406738V0.40695ZM7.75943 14.7017C4.14412 14.7017 1.20263 11.7604 1.20263 8.14493C1.20263 4.52941 4.14391 1.58812 7.75943 1.58812C11.3749 1.58812 14.3162 4.52941 14.3162 8.14493C14.3162 11.7604 11.3749 14.7017 7.75943 14.7017Z" fill="black"/>
<path d="M11.5447 7.46565H8.49839V2.97643C8.49839 2.56859 8.16784 2.23804 7.76 2.23804C7.35216 2.23804 7.02161 2.56859 7.02161 2.97643V8.17715C7.02161 8.59981 7.36423 8.94244 7.78689 8.94244H11.5447C11.9526 8.94244 12.2831 8.61189 12.2831 8.20404C12.2831 7.7962 11.9526 7.46565 11.5447 7.46565Z" fill="black"/>
</svg>
