<svg width="16" height="17" viewBox="0 0 16 17" fill="none" xmlns="http://www.w3.org/2000/svg">
<path d="M2.22483 16.5325H13.3382C14.4285 16.5325 15.3128 15.6483 15.3128 14.5579V4.12366C15.3128 3.04921 14.4421 2.17847 13.3676 2.17847H13.0682V3.41893C13.0682 4.23356 12.4061 4.89572 11.5914 4.89572C10.7768 4.89572 10.1146 4.23356 10.1146 3.41893V2.17847H9.22866V3.41893C9.22866 4.23356 8.5665 4.89572 7.75187 4.89572C6.93725 4.89572 6.27509 4.23356 6.27509 3.41893V2.17847H5.44818V3.41893C5.44818 4.23356 4.78602 4.89572 3.9714 4.89572C3.15677 4.89572 2.49461 4.23356 2.49461 3.41893V2.17847H2.19519C1.12074 2.17847 0.25 3.04921 0.25 4.12366V14.5577C0.25 15.648 1.13429 16.5323 2.22462 16.5323L2.22483 16.5325ZM1.19528 7.08146H14.3678V14.5255C14.3678 15.0797 13.9188 15.5286 13.3647 15.5286H2.19836C1.6442 15.5286 1.19528 15.0797 1.19528 14.5255V7.08146Z" fill="black"/>
<path d="M7.75329 4.36445C8.27548 4.36445 8.69836 3.94158 8.69836 3.41939V1.3518C8.69836 1.09071 8.59269 0.85439 8.42202 0.68308C8.25071 0.512404 8.01439 0.406738 7.75329 0.406738C7.2311 0.406738 6.80823 0.829615 6.80823 1.3518V3.41918C6.80823 3.94137 7.2311 4.36424 7.75329 4.36424V4.36445Z" fill="black"/>
<path d="M11.5902 4.36445C12.1124 4.36445 12.5353 3.94158 12.5353 3.41939V1.3518C12.5353 1.09071 12.4296 0.85439 12.2589 0.68308C12.0876 0.512404 11.8513 0.406738 11.5902 0.406738C11.068 0.406738 10.6451 0.829615 10.6451 1.3518V3.41918C10.6451 3.94137 11.068 4.36424 11.5902 4.36424V4.36445Z" fill="black"/>
<path d="M3.97046 4.36445C4.49265 4.36445 4.91552 3.94158 4.91552 3.41939V1.3518C4.91552 1.09071 4.80986 0.85439 4.63918 0.68308C4.46787 0.512404 4.23155 0.406738 3.97046 0.406738C3.44827 0.406738 3.02539 0.829615 3.02539 1.3518V3.41918C3.02539 3.94137 3.44827 4.36424 3.97046 4.36424V4.36445Z" fill="black"/>
</svg>
