<?xml version="1.0" encoding="UTF-8"?>
<svg id="Capa_1" xmlns="http://www.w3.org/2000/svg" xmlns:xlink="http://www.w3.org/1999/xlink" version="1.1" viewBox="0 0 435 550">
  <!-- Generator: Adobe Illustrator 29.7.1, SVG Export Plug-In . SVG Version: 2.1.1 Build 8)  -->
  <defs>
    <style>
      .st0 {
        fill: none;
      }

      .st1 {
        fill: url(#Degradado_sin_nombre);
      }
    </style>
    <linearGradient id="Degradado_sin_nombre" data-name="Degradado sin nombre" x1="-143.4" y1="644.4" x2="169.5" y2="-74.4" gradientTransform="translate(0 549.9) scale(1 -1)" gradientUnits="userSpaceOnUse">
      <stop offset=".3" stop-color="#978fed" stop-opacity="0"/>
      <stop offset=".4" stop-color="#fa974c"/>
      <stop offset=".5" stop-color="#ff9751"/>
      <stop offset=".6" stop-color="#fffc75"/>
      <stop offset="1" stop-color="#ac97fd" stop-opacity="0"/>
    </linearGradient>
  </defs>
  <path class="st0" d="M2.7,27.1v495.9c0,13.8,11.3,25.1,25.1,25.1h234.8l-21.3-27.4H17.1s0-435.7,0-435.7V4.4C8.6,8.5,2.7,17.1,2.7,27.1Z"/>
  <path class="st1" d="M27.8,548.1c-13.8,0-25.1-11.3-25.1-25.1V27.1c0-10,5.9-18.7,14.4-22.7v-1.9C7.6,6.7,1,16.2,1,27.1v495.9c0,14.8,12,26.8,26.8,26.8h236.1l-1.3-1.7H27.8Z"/>
</svg>