<svg width="18" height="18" viewBox="0 0 18 18" fill="none" xmlns="http://www.w3.org/2000/svg">
<path d="M16.0347 0H1.29923C0.593359 0 0.022583 0.557267 0.022583 1.24625V16.0425C0.022583 16.7315 0.593359 17.2922 1.29923 17.2922H16.0347C16.7406 17.2922 17.3147 16.7315 17.3147 16.0459V1.24625C17.3147 0.557267 16.7406 0 16.0347 0ZM5.15282 14.7355H2.58601V6.48118H5.15282V14.7355ZM3.86941 5.35652C3.04533 5.35652 2.37999 4.69117 2.37999 3.87047C2.37999 3.04977 3.04533 2.38443 3.86941 2.38443C4.69012 2.38443 5.35546 3.04977 5.35546 3.87047C5.35546 4.6878 4.69012 5.35652 3.86941 5.35652ZM14.7581 14.7355H12.1946V10.7232C12.1946 9.76737 12.1778 8.53463 10.8606 8.53463C9.52652 8.53463 9.32388 9.57824 9.32388 10.6556V14.7355H6.76383V6.48118H9.22255V7.60923H9.25633C9.59744 6.96077 10.435 6.27516 11.6813 6.27516C14.2785 6.27516 14.7581 7.98412 14.7581 10.2064V14.7355Z" fill="#171717"/>
</svg>
